<?xml version="1.0" encoding="UTF-8"?>
<svg xmlns="http://www.w3.org/2000/svg" version="1.1" viewBox="0 0 32 32">
  <defs>
    <style>
      .cls-1 {
        fill: none;
      }
    </style>
  </defs>
  <!-- Generator: Adobe Illustrator 28.6.0, SVG Export Plug-In . SVG Version: 1.2.0 Build 709)  -->
  <g>
    <g id="Layer_1">
      <g id="icon">
        <path d="M28,4H4c-1.1,0-2,.9-2,2v11.7c.8,0,1.5,0,2,0V6h12v20h-2.8c0,.7,0,1.3,0,2h14.8c1.1,0,2-.9,2-2V6c0-1.1-.9-2-2-2Z"/>
        <path class="cls-1" d="M0,0v17.7c2.8,0,4.8,0,4.8.1,0,.9.3,2.3-.3,3.1,2.5,0,4.9,0,4.9,0-.2,1.6-.2,3.5.2,5.1.2,0,.3,0,.3,0,.4.7.4,1.4.2,2.1,0,.4-.1.8-.5,1.1-.5.4-2.6,0-3.2,0-2.1,0-4.2,0-6.3,0v2.5h10.1c0-1,0-2,0-3,0,0,0-3.3,0-3.3.8.1,1.6,0,2.3,0,0-1.7,0-3.4,0-5.1,0-.8,0-1.5,0-2.3,0-.3,0-.6,0-.9.1,0,.3,0,.4,0,0,0,0,2.9,0,3.2,0,2.6,0,5.2,0,7.8,0,1.2,0,2.4,0,3.6h18.8V0H0Z"/>
      </g>
      <polygon points="7 19.4 5 19.4 5 23.4 1 23.4 1 25.4 5 25.4 5 29.4 7 29.4 7 25.4 11 25.4 11 23.4 7 23.4 7 19.4"/>
    </g>
  </g>
</svg>